<?xml version="1.0" encoding="utf-8"?>
<!-- Generator: Adobe Illustrator 22.0.0, SVG Export Plug-In . SVG Version: 6.00 Build 0)  -->
<svg version="1.1" id="Camada_1" xmlns="http://www.w3.org/2000/svg" xmlns:xlink="http://www.w3.org/1999/xlink" x="0px" y="0px"
	 viewBox="0 0 511 295" style="enable-background:new 0 0 511 295;" xml:space="preserve">
<style type="text/css">
	.st0{fill:#A18CFF;}
</style>
<g>
	<path class="st0" d="M453.6,182.8c-11.6,2.4-21.5,9.2-28,19.1c-11.1,17-6.4,39.9,10.6,51.1c20.9,13.7,48-3,44.5-19.5
		c-1.7-8.3-9.8-13.6-18.1-11.9c-9.5,2-14.9,12.3-10.8,21.3c-13.2-1.1-22.7-19-13.7-32.8c4.3-6.5,10.8-11,18.5-12.6
		c27.9-5.8,50.9,30.1,33,57.3c-15.1,23-46,29.5-69,14.4c-29.7-19.4-38-59.2-18.5-88.9c2.2-3.3,1.4-7.8-1.8-10.1
		c-3.2-2.4-7.7-1.9-10.2,1.2c-0.2,0.2-17.9,20.9-47.8,34.2c-19,8.4-38.4,12-58.1,10.9c4.7-2.2,9.4-4.6,14.2-7.4
		c3.6-2.1,4.8-6.6,2.8-10.2s-6.6-4.9-10.2-2.8c-11.9,6.8-23.8,11.9-35.5,15.4c-11.8-3.4-23.6-8.6-35.5-15.4
		c-3.6-2.1-8.2-0.8-10.2,2.8c-2.1,3.6-0.8,8.2,2.8,10.2c4.8,2.8,9.6,5.2,14.2,7.4c-19.7,1.2-39.1-2.4-58.1-10.9
		c-29.8-13.2-47.6-34-47.7-34.2c-2.6-3-7-3.6-10.2-1.2s-4,6.8-1.8,10.1c19.4,29.7,11.2,69.5-18.5,88.9c-23,15.1-54,8.6-69-14.4
		c-11.6-17.7-6.6-41.6,11.1-53.2c13.5-8.8,31.6-5.1,40.4,8.4c9,13.7-0.3,31.7-13.7,32.8c4.1-9.1-1.3-19.3-10.8-21.3
		c-8.3-1.7-16.4,3.6-18.1,11.9c-3.4,16.3,23.5,33.2,44.5,19.5c17-11.1,21.8-34.1,10.6-51.1c-6.5-9.9-16.4-16.7-28-19.1
		c-40.9-8.5-73.9,41.8-48.7,80.2c19.7,30.1,60,38.2,89.8,18.7c27.5-18,39.7-49.9,34.8-79.4c36.2,26.2,78.8,35.6,122.1,24.4
		c43.3,11.2,85.9,1.8,122.1-24.4c-7.7,46.2,27,90,70.2,90c21.2,0,41.9-10.3,54.4-29.3C527.4,224.6,494.5,174.2,453.6,182.8z"/>
	<path class="st0" d="M207.1,179.3c23.8,0,40.1-10.7,48.4-17.9c8.3,7.2,24.6,17.9,48.4,17.9c27.6,0,56.9-14.4,87.1-42.8
		c6-5.6,4.5-15.5-2.7-19.5c-0.9-0.5-1.9-1-2.9-1.5c-3.8-1.8-8.2-0.2-10,3.6c-1.6,3.3-0.5,7.2,2.3,9.3c-28.8,26.2-67,47.6-101.6,29.1
		l0,0c-4.4-2.3-8.5-5.2-12-8.5c16.7-30.9,53.4-35,87.9-28.2c4.1,0.8,8-1.8,8.8-5.9c0.8-4.1-1.8-8-5.9-8.8c-5.8-1.2-11.6-2-17.3-2.5
		c6.1-14.4,10.3-31.5,12.6-51.2c1-8.3-6.7-14.8-14.6-13.2c-8.5,1.6-28.3,8.9-47.4,22.2c-0.6-2.4-1.3-4.8-2.1-7.2
		c-1.3-4-5.5-6.1-9.4-4.9c-4,1.3-6.1,5.5-4.9,9.4c1.4,4.4,2.5,8.7,3.4,12.8c-8.5,7.6-14.9,15.3-19.8,23.4
		c-4.9-8-11.1-15.6-19.5-23.2c3.5-14.2,10.5-29.6,20.8-46c1.2,1.9,2.6,4.1,4,6.6c2,3.6,6.6,5,10.2,3s5-6.6,3-10.2
		c-2.7-4.9-5.4-9.1-7.7-11.9C261,6.8,251,7.1,246.5,14c-10.9,16.6-18.7,32.6-23.3,47.6c-19.2-13.5-39.4-21-47.9-22.6
		c-7.9-1.5-15.6,5-14.6,13.2c2.3,19.7,6.6,36.8,12.6,51.2c-0.6,0.1-1.2,0.1-1.8,0.2c-4.1,0.4-7.1,4.1-6.7,8.2
		c0.4,4.1,4.1,7.1,8.2,6.7c30.4-3.1,59.3,3.6,73.8,30.3c-10,9.3-24.1,15.3-39.8,15.3c-22.7,0-47.5-12.1-73.7-35.9
		c3.2-1.4,7.3-2.9,11.7-4.2c4-1.2,6.2-5.4,5-9.4s-5.4-6.2-9.3-5c-7.3,2.2-13.9,4.8-18.1,7.1c-7.2,4-8.6,13.9-2.7,19.5
		C150.2,164.9,179.5,179.3,207.1,179.3z M291.6,77.7c15.6-12.1,33.2-20,43.2-22.9c-2.6,19.1-7.1,35.2-13.4,48.2
		c-23.8,0.7-45.9,7.8-61.4,25.5C260.6,119.2,275,90.6,291.6,77.7z M245.5,123c-12.2-11.1-30.3-19.2-55.9-19.9
		c-6.3-13.1-10.8-29.2-13.4-48.2c10.1,2.9,27.7,10.8,43.3,22.9c12,9.3,22.9,21.1,28.1,35.2C246.6,116.3,245.9,119.6,245.5,123z"/>
</g>
</svg>
