<?xml version="1.0" encoding="utf-8"?>
<!-- Generator: Adobe Illustrator 22.0.0, SVG Export Plug-In . SVG Version: 6.00 Build 0)  -->
<svg version="1.1" id="Capa_1" xmlns="http://www.w3.org/2000/svg" xmlns:xlink="http://www.w3.org/1999/xlink" x="0px" y="0px"
	 viewBox="0 0 400 400" style="enable-background:new 0 0 400 400;" xml:space="preserve">
<style type="text/css">
	.st0{fill:#E8717A;stroke:#E8717A;stroke-width:9;stroke-miterlimit:10;}
	.st1{fill:#E8717A;stroke:#E8717A;stroke-width:5;stroke-miterlimit:10;}
</style>
<path class="st0" d="M200.6,395.7c108.2,0,196.3-88.1,196.3-196.3S308.8,3.1,200.6,3.1S4.2,91.1,4.2,199.4S92.3,395.7,200.6,395.7z
	 M200.6,22.7c97.4,0,176.7,79.3,176.7,176.7S298,376.1,200.6,376.1S23.9,296.8,23.9,199.4S103.1,22.7,200.6,22.7z"/>
<path class="st1" d="M126.7,276.4c2.8,2.8,6.5,4.2,10.2,4.2s7.4-1.4,10.2-4.2l55.8-55.8l55.8,55.8c2.8,2.8,6.5,4.2,10.2,4.2
	s7.4-1.4,10.2-4.2c5.6-5.6,5.6-14.7,0-20.3L223,200.3l55.8-55.8c5.6-5.6,5.6-14.7,0-20.3c-5.6-5.6-14.7-5.6-20.3,0L202.8,180
	L147,124.2c-5.6-5.6-14.7-5.6-20.3,0c-5.6,5.6-5.6,14.7,0,20.3l55.8,55.8l-55.8,55.8C121.1,261.8,121.1,270.8,126.7,276.4z"/>
</svg>
