<?xml version="1.0" encoding="utf-8"?>
<!-- Generator: Adobe Illustrator 22.0.0, SVG Export Plug-In . SVG Version: 6.00 Build 0)  -->
<svg version="1.1" id="Camada_1" xmlns="http://www.w3.org/2000/svg" xmlns:xlink="http://www.w3.org/1999/xlink" x="0px" y="0px"
	 viewBox="0 0 400 400" style="enable-background:new 0 0 400 400;" xml:space="preserve">
<style type="text/css">
	.st0{fill:#FFFFFF;}
	.st1{fill:none;}
	.st2{enable-background:new    ;}
	.st3{fill:#E8717A;}
</style>
<path class="st0" d="M40.9,247.7c-22,0-39.9-17.9-39.9-39.9v-7c0-22,17.9-39.9,39.9-39.9h318.3c22,0,39.9,17.9,39.9,39.9v7
	c0,22-17.9,39.9-39.9,39.9L40.9,247.7L40.9,247.7z"/>
<path class="st1" d="M359.1,162c21.4,0,38.9,17.4,38.9,38.9v7c0,21.4-17.4,38.9-38.9,38.9H40.9C19.4,246.7,2,229.3,2,207.8v-7
	C2,179.4,19.4,162,40.9,162H359.1 M359.1,160H40.9C18.4,160,0,178.4,0,200.9v7c0,22.5,18.4,40.9,40.9,40.9h318.3
	c22.5,0,40.9-18.4,40.9-40.9v-7C400,178.4,381.6,160,359.1,160L359.1,160z"/>
<g class="st2">
	<path class="st3" d="M70.1,178.2c0.1,0.2,0.2,0.4,0.3,0.7c0.4,1.4,2.7,13.3,6.8,35.7c0.1,0.2,0.1,0.3,0.1,0.5
		c0,0.4-0.1,0.7-0.3,1.1c-0.4,0.7-1,1.1-1.7,1.1c-0.1,0-0.2,0-0.3,0c-0.8-0.1-1.4-0.6-1.6-1.4L71,203.9H59.2l-5.7,11.9
		c-0.1,0.1-0.1,0.3-0.2,0.4c-0.5,0.7-1.1,1-1.8,1c-0.4,0-0.8-0.1-1.1-0.3c-0.6-0.4-0.9-1-0.9-1.7c0-0.2,0-0.4,0.1-0.6
		c0.4-0.8,0.9-2.1,1.8-3.9c8.3-18.1,13.2-28.8,14.9-32c0.5-0.9,1.1-1.4,2-1.4C69,177.2,69.6,177.5,70.1,178.2z M67.5,186.2
		l-6.4,13.5h9L67.5,186.2z"/>
	<path class="st3" d="M82.6,209c0-0.6,0-1.2,0.1-1.9c0.4-2.9,1.3-5.6,2.8-7.9c1.8-2.8,4-4.2,6.6-4.2c0.9,0,1.8,0.2,2.6,0.5l2.1-14.9
		c0.3-2,1-3,2.1-3.1c0.2,0,0.4,0,0.6,0.1c0.8,0.5,1.2,2.3,1.2,5.4c0,0.3-0.2,2.3-0.7,5.9c-2,12.6-2.9,19.5-2.9,20.7
		c0,0.8,0.2,1.5,0.5,2.2c0.5,1,1.1,1.6,1.9,1.6c0.2,0,0.3,0,0.5-0.1c0.5-0.1,1.3-0.5,2.2-1.2c1-0.7,1.7-1,2.3-1
		c0.2,0,0.5,0.1,0.7,0.3c0.4,0.3,0.6,0.8,0.6,1.3c-0.1,0.9-0.7,1.8-2,2.8c-1.6,1.1-3.2,1.7-4.9,1.7c-2.2,0-3.8-1.1-4.9-3.3
		c-0.3,0.3-0.5,0.6-0.9,0.9c-1.6,1.5-3.3,2.3-5,2.3c-1.1,0-2-0.3-2.8-0.8C83.5,215.2,82.6,212.7,82.6,209z M91.8,210.8
		c0.2-0.3,0.5-1.2,0.8-2.6c0.7-3,1.2-6.1,1.6-9.4c-0.4-0.2-0.8-0.3-1.2-0.4c-0.3,0-0.6,0-1,0.1c-1.6,0.4-3,1.9-4.1,4.4
		c-1,2.3-1.5,4.5-1.5,6.8c0,0.2,0,0.4,0,0.6c0.1,1.9,0.6,2.9,1.6,2.9c0.5,0,1.1-0.3,1.9-0.8C90.8,211.9,91.4,211.3,91.8,210.8z"/>
	<path class="st3" d="M106.5,214.2c-0.1,0.6-0.2,1.2-0.5,1.7c-0.5,0.8-1.1,1.2-1.9,1.2c-0.2,0-0.4,0-0.5-0.1
		c-0.8-0.4-1.3-1.3-1.3-2.7l2.2-16.3c0-0.3,0.1-0.6,0.2-0.9c0.3-1.4,0.9-2.1,2-2.1c0.2,0,0.4,0,0.6,0.1c0.7,0.2,1.1,0.9,1.1,2.2
		c0,0.5,0,1.1-0.1,1.7c0,0,0-0.1,0.1-0.1c1.3-2.3,3.1-3.5,5.5-3.5c0.7,0,1.4,0.2,2.2,0.6c1.2,0.6,1.9,1.4,2.2,2.4
		c1.2-1.9,3-2.8,5.1-2.8c0.8,0,1.6,0.3,2.4,0.8c1.1,0.8,1.6,1.8,1.6,3.1c0,0.8,0,2.1,0,3.8c0,1.9-0.1,3.3-0.1,4.3c0,0.8,0,1.5,0.1,2
		c0.2,2.7,1,4.1,2.5,4.1c0.2,0,0.4,0,0.5-0.1c0.5-0.1,1.2-0.5,2.2-1.2c0.9-0.7,1.7-1,2.3-1c0.2,0,0.4,0.1,0.6,0.2
		c0.5,0.3,0.8,0.8,0.8,1.5c0,0.1,0,0.1,0,0.2c-0.1,0.8-0.8,1.7-2.1,2.5c-1.6,1.1-3.2,1.6-4.8,1.6c-1.3,0-2.4-0.4-3.3-1.1
		c-1.8-1.5-2.8-4.7-2.8-9.7c0-0.3,0-0.8,0-1.4c0-1,0.1-1.8,0.1-2.5c0-1.8-0.2-2.7-0.6-2.8c-0.3,0-0.7,0.3-1.2,0.8
		c-1.2,1.4-2.5,4-3.9,7.8l-0.4,4.4c-0.1,1.1-0.2,2-0.4,2.6c-0.4,1.2-1.1,1.7-2.1,1.7c-0.3,0-0.5-0.1-0.8-0.2
		c-0.7-0.3-1.1-1.1-1.1-2.1c0-1,0.2-2.9,0.7-5.6c0.7-3.8,1-6.3,1-7.7c0-0.4,0-0.7-0.1-1c-0.1-0.6-0.5-0.9-1.1-0.9
		c-0.3,0-0.7,0.2-1,0.5c-1.3,1.2-2.7,4-4.3,8.5C107,211.6,106.5,213.4,106.5,214.2z"/>
	<path class="st3" d="M152.4,212.3c-0.5-1.4-0.7-3.1-0.7-5.3c0-0.6,0-1.2,0.1-1.9c0.1-1.9,0.3-3.2,0.5-3.9c-0.5,0.3-1.1,0.5-1.8,0.6
		c-0.5,2.5-1.1,4.7-1.9,6.6c-2.2,5.6-5.4,8.4-9.4,8.4c-1.5,0-2.7-0.5-3.7-1.5c-1.5-1.6-2.2-4-2.2-7.4c0-1.2,0.2-3.4,0.7-6.8
		c0.2-1.6,0.4-2.7,0.4-3.5c0-0.2,0-0.4,0.1-0.6c0.3-1.7,1-2.5,2.1-2.5c0.2,0,0.4,0,0.6,0.1c0.8,0.2,1.2,0.9,1.2,2.3
		c0,0.5-0.1,1.6-0.2,3.3c-0.5,4.9-0.7,7.9-0.7,9.1c0,0.8,0.1,1.5,0.4,2.1c0.4,1,1.1,1.6,1.8,1.7c0.7,0,1.4-0.3,2.2-0.9
		c0.7-0.7,1.3-1.5,1.9-2.4c1.1-1.8,2.2-4.5,3.1-8.1c-0.6-0.2-1.1-0.4-1.6-0.6c-1.8-1-2.7-2.7-2.7-4.9c0-0.7,0.2-1.4,0.6-2.1
		c0.8-1.3,2-2,3.7-2c0.9,0,1.7,0.2,2.5,0.7c1.3,0.8,1.9,1.9,1.9,3.3c0,0.6,0,1.3-0.1,2.2c0.3-0.2,0.9-0.6,1.5-1.1c1-0.7,1.7-1,2.2-1
		c0.6,0,1.1,0.2,1.5,0.5c0.5,0.3,0.7,0.6,0.7,0.9c0,0.1-0.1,0.4-0.2,0.8c-0.9,3-1.3,5.6-1.3,7.9c0,1.7,0.2,3,0.5,4.1
		c0.5,1.4,1.2,2.1,2.1,2.1c0.5-0.1,1.4-0.4,2.6-1.1c1.1-0.7,1.9-1.1,2.4-1.1c0.3,0,0.5,0.1,0.8,0.3c0.4,0.3,0.7,0.7,0.7,1.2
		c-0.1,1-0.8,2-2,3c-1.5,1.1-3.2,1.7-4.9,1.7c-0.4,0-0.8,0-1.2-0.1C154.5,215.7,153.2,214.4,152.4,212.3z M135.4,190.2
		c0-0.3,0.1-0.6,0.2-0.9c0.3-0.7,0.9-1,1.7-1c0.3,0,0.6,0.1,0.9,0.2c0.7,0.3,1,0.9,1,1.7c0,0.3-0.1,0.6-0.2,0.9
		c-0.3,0.7-0.9,1-1.7,1c-0.3,0-0.6-0.1-0.9-0.2C135.8,191.5,135.4,190.9,135.4,190.2z M145.6,196.5c0,1,0.6,1.7,1.8,2.1
		c0.2-0.9,0.3-1.6,0.3-2.1c0-0.1,0-0.2-0.1-0.3c-0.1-0.5-0.4-0.7-1-0.7c-0.1,0-0.2,0-0.3,0.1C145.9,195.6,145.6,195.9,145.6,196.5z"
		/>
	<path class="st3" d="M165.1,208.9c0-0.6,0-1.2,0.1-1.9c0.4-2.9,1.3-5.6,2.8-7.9c1.8-2.8,4-4.2,6.6-4.2c1.1,0,2.1,0.3,2.9,0.8
		c0.3-0.5,0.8-0.8,1.4-0.8c0.3,0,0.5,0,0.8,0.1c0.7,0.2,1,1,1,2.2c0,0.5-0.1,1.6-0.3,3.2c-0.5,4.9-0.8,8-0.8,9.1
		c0,0.8,0.2,1.5,0.5,2.2c0.5,1,1.1,1.5,1.9,1.5c0.3,0,0.7-0.1,1-0.2c2.4-0.8,4.5-4.6,6.2-11.1c-0.7-0.2-1.3-0.5-1.9-0.9
		c-1.6-1.1-2.4-2.6-2.4-4.6c0-0.7,0.2-1.4,0.6-2.1c0.8-1.3,2-2,3.7-2c0.9,0,1.7,0.2,2.5,0.7c1.3,0.8,1.9,1.8,1.9,3.2
		c0,0.6,0,1.3-0.1,2.1c0.4-0.2,0.9-0.6,1.6-1.1c1-0.6,1.7-0.9,2.1-0.9c0.5,0,1,0.1,1.5,0.4c0.5,0.3,0.7,0.6,0.7,0.9
		c0,0.1-0.1,0.4-0.2,0.8c-0.9,3-1.3,5.6-1.3,7.9c0,1.7,0.2,3.1,0.5,4.1c0.5,1.4,1.2,2.1,2.1,2.1c0.5,0,1.4-0.4,2.6-1.1
		c1.1-0.7,1.8-1.1,2.4-1.1c0.3,0,0.5,0.1,0.8,0.3c0.4,0.3,0.7,0.7,0.7,1.2c-0.1,1-0.7,1.9-2,2.9c-1.5,1.1-3.2,1.7-4.9,1.7
		c-0.2,0-0.4,0-0.6,0c-1.9-0.2-3.4-1.3-4.3-3.3c-0.7-1.2-1-3.2-1-6c0-0.6,0-1.1,0.1-1.8c0.1-1.9,0.3-3.2,0.5-4
		c-0.5,0.3-1.1,0.5-1.7,0.6c-0.1,0.5-0.2,1.1-0.3,1.6c-2.1,9-5.8,13.4-11.1,13.4c-2.2,0-3.8-1.1-4.8-3.3c-0.2,0.3-0.5,0.5-0.8,0.8
		c-1.7,1.7-3.5,2.5-5.3,2.5c-1.1,0-2.1-0.3-2.9-0.9C165.9,215.1,165.1,212.6,165.1,208.9z M176.3,201.3c0-0.1,0.1-1,0.3-2.6
		c-0.4-0.2-0.8-0.3-1.2-0.3c-0.3,0-0.7,0-1,0.1c-1.6,0.5-2.9,2-4,4.5c-1,2.3-1.5,4.5-1.5,6.7c0,0.3,0,0.6,0.1,0.9
		c0.2,1.7,0.7,2.5,1.6,2.5c0.5,0,1.1-0.2,1.8-0.7c0.8-0.6,1.5-1.2,1.9-1.8c0.1-0.2,0.3-0.7,0.6-1.6C175.5,206.5,176,204,176.3,201.3
		z M188,197c0,0.9,0.6,1.5,1.8,1.9c0.2-1,0.3-1.6,0.3-1.9c0-0.1,0-0.2-0.1-0.3c-0.1-0.5-0.4-0.7-0.9-0.7c-0.1,0-0.2,0-0.3,0
		C188.2,196.2,188,196.5,188,197z"/>
	<path class="st3" d="M242.9,178.2c0.1,0.2,0.2,0.4,0.3,0.7c0.4,1.4,2.7,13.3,6.8,35.7c0.1,0.2,0.1,0.3,0.1,0.5
		c0,0.4-0.1,0.7-0.3,1.1c-0.4,0.7-1,1.1-1.7,1.1c-0.1,0-0.2,0-0.3,0c-0.8-0.1-1.4-0.6-1.6-1.4l-2.3-11.9H232l-5.7,11.9
		c0,0.1-0.1,0.3-0.2,0.4c-0.5,0.7-1.1,1-1.8,1c-0.4,0-0.8-0.1-1.1-0.3c-0.6-0.4-0.9-1-0.9-1.7c0-0.2,0-0.4,0.1-0.6
		c0.4-0.8,0.9-2.1,1.8-3.9c8.3-18.1,13.2-28.8,14.9-32c0.5-0.9,1.1-1.4,2-1.4C241.8,177.2,242.4,177.5,242.9,178.2z M240.3,186.2
		l-6.4,13.5h9L240.3,186.2z"/>
	<path class="st3" d="M255.1,209.3c0-0.6,0-1.2,0.1-1.9c0.4-3,1.3-5.6,2.8-7.9c1.8-2.8,4-4.2,6.6-4.2c1.1,0,2.1,0.2,2.9,0.6
		c0.3-0.4,0.8-0.6,1.4-0.6c1.1,0,1.7,0.8,1.8,2.2c0,0.1-0.9,6.9-2.8,20.5c3.8-2.9,6.2-4.7,7.3-5.6c0.6-0.6,1.3-0.9,2-0.9
		c0.2,0,0.5,0.1,0.7,0.2c0.5,0.3,0.8,0.8,0.8,1.3c0,0.8-0.5,1.6-1.4,2.4c-1.7,1.4-5.1,4.1-10,7.9l-1.2,8.6c-0.3,2-1.1,3.5-2.5,4.5
		c-1.1,0.8-2.4,1.2-3.7,1.2c-1.6,0-3-0.6-4.2-1.8c-1.2-1.2-1.8-2.5-1.8-4c0-1.4,0.3-2.6,1-3.6c0.4-0.6,1.2-1.3,2.4-2.2l0.1,0
		c0,0,0.1-0.1,0.2-0.2c1.2-0.9,3.2-2.4,6.1-4.6l0.7-5.1c-1.1,0.8-2.4,1.2-3.6,1.2c-1.1,0-2-0.3-2.9-0.9
		C256,215.4,255.1,212.9,255.1,209.3z M262.1,229.9l0.4-3.2c-0.1,0.1-0.2,0.1-0.3,0.2c-1.7,1.3-2.6,2-2.6,2c-1.2,1-1.8,1.9-1.9,2.7
		c0,0.3,0.1,0.6,0.2,0.9c0.3,0.8,0.8,1.2,1.6,1.2c0.3,0,0.6-0.1,0.9-0.2C261.4,233.2,261.9,232,262.1,229.9z M264.3,211
		c0.2-0.3,0.5-1.3,0.9-2.8c0.7-3,1.2-6.1,1.5-9.2c-0.4-0.2-0.8-0.3-1.2-0.3c-0.3,0-0.6,0-1,0.1c-1.6,0.4-3,1.9-4.1,4.4
		c-1,2.3-1.5,4.5-1.5,6.8c0,0.2,0,0.5,0,0.7c0.1,1.8,0.7,2.7,1.6,2.7c0.5,0,1.1-0.2,1.8-0.7C263.1,212.2,263.8,211.6,264.3,211z"/>
	<path class="st3" d="M282.6,195.5l0.4,0c0.4,0,0.7,0.1,1.1,0.1c3.2,0.6,4.9,3.3,5.2,8.2h0.3c0.2,0,0.4,0,0.6,0
		c1.6-0.1,3-0.6,4.1-1.5c-0.1-0.1-0.2-0.1-0.4-0.2c-1.8-1-2.7-2.6-2.7-4.8c0-0.7,0.2-1.4,0.6-2.1c0.8-1.3,2-2,3.7-2
		c0.9,0,1.7,0.2,2.5,0.7c1.3,0.8,1.9,1.8,1.9,3.2c0,0.7-0.1,1.4-0.2,2.2c0.6-0.3,1.5-0.9,2.5-1.7c0.3-0.2,0.7-0.3,1.2-0.3
		c0.6,0,1.1,0.1,1.5,0.4c0.5,0.3,0.7,0.6,0.7,0.9c0,0.1-0.1,0.4-0.2,0.8c-0.9,2.8-1.3,5.4-1.3,7.6c0,0.7,0.1,2,0.4,3.9
		c0,0,0,0,0,0.1c0.5,1.6,1.2,2.4,2.2,2.4c0.5,0,1.4-0.4,2.6-1.1c1.1-0.7,1.8-1.1,2.4-1.1c0.3,0,0.5,0.1,0.8,0.3
		c0.5,0.3,0.7,0.7,0.7,1.2c-0.1,1-0.7,1.9-2,2.9c-1.6,1.1-3.2,1.7-4.9,1.7c-0.2,0-0.4,0-0.6,0c-1.9-0.2-3.4-1.3-4.3-3.3
		c-0.7-1.1-1-3.1-1-6c0-1.9,0.2-3.9,0.5-5.9c-0.8,0.4-1.6,0.6-2.6,0.7c-1.6,2.5-4.7,3.9-9.1,4.3c-0.1,2.2-0.6,4.1-1.3,5.7
		c-1.3,2.9-3.3,4.3-6.1,4.3h-0.2c-1.1,0-2.1-0.3-3.2-1c-2.4-1.6-3.6-4.5-3.6-8.6c0-4.8,1.2-8.3,3.7-10.4c1.2-1,2.5-1.6,3.9-1.6
		H282.6z M285.6,207c-0.8-0.2-1.6-0.5-2.3-0.8c-1.9-1-3.1-2.3-3.8-4c-0.5,1.5-0.8,3.2-0.8,5.2c0,0.8,0.1,1.7,0.2,2.4
		c0.5,2.3,1.5,3.5,3.1,3.5c0.3,0,0.5,0,0.7-0.1C284.4,212.7,285.3,210.6,285.6,207z M282.9,200.3c0,0.4,0.1,0.8,0.4,1.2
		c0.5,0.9,1.3,1.4,2.3,1.8c-0.1-0.5-0.1-1-0.2-1.5c-0.3-1.6-0.9-2.3-1.6-2.3c-0.1,0-0.2,0-0.3,0
		C283.1,199.6,282.9,199.9,282.9,200.3z M294.3,197.7c0,0.9,0.6,1.6,1.8,2c0.2-0.6,0.3-1.2,0.3-2c0-0.1,0-0.2-0.1-0.3
		c-0.1-0.4-0.4-0.7-1-0.7c-0.1,0-0.2,0-0.3,0C294.6,196.9,294.3,197.2,294.3,197.7z"/>
	<path class="st3" d="M312.2,209.1c0-0.6,0-1.2,0.1-1.9c0.4-3,1.3-5.6,2.8-7.9c1.8-2.8,4-4.2,6.6-4.2c1.1,0,2.1,0.2,2.9,0.6
		c0.3-0.4,0.8-0.6,1.4-0.6c0.3,0,0.6,0,0.6,0.1c0.7,0.2,1.1,1,1.1,2.2c0,0.5-0.1,1.6-0.3,3.2c-0.5,4.9-0.8,7.9-0.8,9.1
		c0,0.8,0.2,1.5,0.5,2.2c0.5,1,1.1,1.6,1.9,1.6c0.2,0,0.3,0,0.5-0.1c0.5-0.1,1.3-0.5,2.2-1.2c0.9-0.7,1.7-1,2.3-1
		c0.2,0,0.5,0.1,0.7,0.2c0.5,0.3,0.7,0.8,0.7,1.4c-0.1,0.9-0.7,1.8-2,2.8c-1.6,1.1-3.2,1.7-5,1.7c-2.2,0-3.8-1.1-4.8-3.3
		c-0.2,0.3-0.5,0.6-0.8,0.9c-1.7,1.6-3.4,2.4-5.2,2.4c-1.1,0-2.1-0.3-2.9-0.9C313,215.2,312.2,212.8,312.2,209.1z M323.5,200.6
		l0.2-1.8c-0.4-0.2-0.8-0.3-1.2-0.3c-0.3,0-0.6,0-1,0.1c-1.6,0.4-3,1.9-4.1,4.4c-1,2.3-1.5,4.5-1.5,6.8c0,0.1,0,0.2,0,0.3
		c0.1,2.1,0.6,3.2,1.6,3.2c0.5,0,1.2-0.3,2-0.9c0.8-0.6,1.4-1.1,1.7-1.6c0.2-0.3,0.5-1.3,0.9-2.9
		C322.9,205.1,323.4,202.6,323.5,200.6z"/>
	<path class="st3" d="M343.3,214.9c0-0.4,0.1-0.9,0.3-1.2c0.4-0.8,1.1-1.1,1.9-1.1c0.4,0,0.8,0.1,1.2,0.4c0.7,0.4,1.1,1.1,1.1,2
		c0,0.4-0.1,0.8-0.3,1.2c-0.4,0.7-1.1,1.1-1.9,1.1c-0.4,0-0.8-0.1-1.2-0.4C343.6,216.4,343.3,215.8,343.3,214.9z M344.7,205.6
		l3.4-25.7c0.1-0.7,0.3-1.3,0.7-1.7c0.4-0.4,0.8-0.6,1.3-0.6c0.5,0,0.9,0.1,1.2,0.4c0.4,0.3,0.6,0.9,0.6,1.5c0,0.2,0,0.3,0,0.5
		l-3.1,25.5c-0.1,0.7-0.3,1.2-0.5,1.7c-0.5,0.8-1.1,1.3-1.9,1.3c-0.2,0-0.4,0-0.5-0.1C345.1,208,344.7,207.1,344.7,205.6z"/>
</g>
</svg>
