<?xml version="1.0" encoding="utf-8"?>
<!-- Generator: Adobe Illustrator 22.0.0, SVG Export Plug-In . SVG Version: 6.00 Build 0)  -->
<svg version="1.1" id="Camada_1" xmlns="http://www.w3.org/2000/svg" xmlns:xlink="http://www.w3.org/1999/xlink" x="0px" y="0px"
	 viewBox="0 0 400 400" style="enable-background:new 0 0 400 400;" xml:space="preserve">
<style type="text/css">
	.st0{fill:#E8717A;stroke:#E8717A;stroke-miterlimit:10;}
</style>
<path class="st0" d="M369.6,199.7c35.3-50.4,17.7-98-23.8-125.7c-14.2-9.5-30.7-14.7-47.7-15.1c-2.7-0.1-5.2-1.8-6.4-4.2
	c-8.2-17.2-19.4-30.4-34.9-39.9c-29-18-66.5-18-95.4,0.2c-40.8,25.6-55.4,78.1-43.6,154.6c6.1,39.3,17.4,73.5,21.9,86.5l1.6,4.5
	c0.7,2.1,0.5,4.5-0.8,6.4l-31.9,47.9c-2.2,3.3-6.6,4.2-9.9,2l-35.9-24c-3.1-2.1-7.4-1.2-9.4,1.9l-6.3,9.4c-1.7,2.6-1,6.1,1.6,7.9
	l36.9,24.6c3.3,2.2,4.2,6.6,2,9.9L63.7,382c-2.2,3.3-1.3,7.6,2,9.8l9,6c2.7,1.8,6.4,1.1,8.3-1.7l24.3-36.5c2.2-3.3,6.6-4.2,9.9-2
	l35.7,23.8c3.3,2.2,7.7,1.3,9.8-2l5.7-8.6c2-3,1.2-7-1.8-8.9l-36.2-24.2c-3.3-2.2-4.2-6.6-2-9.9l31.9-47.9c1.2-1.9,3.3-3.1,5.6-3.2
	l4.8-0.3c5.4-0.3,56.9-5.7,103.2-21.5C316.1,240.7,356.7,218.2,369.6,199.7z M169.4,252.8c-1.6,0.1-3.1-0.3-4.4-1.2
	c-1.3-0.8-2.3-2.1-2.8-3.6c-7.9-22.5-45.5-137.6-8.4-193.3c20.4-30.6,61.8-38.8,92.3-18.5c17,11.3,20.9,37.7,22.6,57.6
	c19.1-6.1,46.8-11.3,63.7,0c30.6,20.4,41,63.4,18.5,92.3C309.1,240,193.2,251.5,169.4,252.8z"/>
</svg>
