<?xml version="1.0" encoding="utf-8"?>
<!-- Generator: Adobe Illustrator 22.0.0, SVG Export Plug-In . SVG Version: 6.00 Build 0)  -->
<svg version="1.1" id="Capa_1" xmlns="http://www.w3.org/2000/svg" xmlns:xlink="http://www.w3.org/1999/xlink" x="0px" y="0px"
	 viewBox="0 0 400 400" style="enable-background:new 0 0 400 400;" xml:space="preserve">
<style type="text/css">
	.st0{fill:#E8717A;stroke:#E8717A;stroke-width:13;stroke-miterlimit:10;}
	.st1{fill:#E8717A;stroke:#E8717A;stroke-width:10;stroke-miterlimit:10;}
</style>
<path class="st0" d="M258.8,196.6c2.4-2.4,2.4-6.3,0-8.7c-2.4-2.4-6.3-2.4-8.6,0l-44.1,44V86.4c0-3.4-2.7-6.2-6.1-6.2
	c-3.4,0-6.2,2.8-6.2,6.2v145.5l-44-44c-2.4-2.4-6.4-2.4-8.7,0c-2.4,2.4-2.4,6.3,0,8.7l54.5,54.5c2.4,2.4,6.3,2.4,8.7,0L258.8,196.6z
	 M302,236.5c0-3.4,2.7-6.1,6.1-6.1c3.4,0,6.2,2.7,6.2,6.1v59.9c0,3.4-2.8,6.2-6.2,6.2H91.7c-3.4,0-6.1-2.8-6.1-6.2v-59.9
	c0-3.4,2.7-6.1,6.1-6.1s6.2,2.7,6.2,6.1v53.8h204.1L302,236.5L302,236.5z"/>
<path class="st1" d="M200,396.3c108.2,0,196.3-88.1,196.3-196.3S308.2,3.7,200,3.7S3.6,91.7,3.6,200S91.7,396.3,200,396.3z
	 M200,23.3c97.4,0,176.7,79.3,176.7,176.7S297.4,376.7,200,376.7S23.3,297.4,23.3,200S102.5,23.3,200,23.3z"/>
</svg>
