<?xml version="1.0" encoding="utf-8"?>
<!-- Generator: Adobe Illustrator 22.0.0, SVG Export Plug-In . SVG Version: 6.00 Build 0)  -->
<svg version="1.1" id="Camada_1" xmlns="http://www.w3.org/2000/svg" xmlns:xlink="http://www.w3.org/1999/xlink" x="0px" y="0px"
	 viewBox="0 0 372.7 109.3" style="enable-background:new 0 0 372.7 109.3;" xml:space="preserve">
<style type="text/css">
	.st0{fill:none;stroke:#77D7ED;stroke-width:4;stroke-linecap:round;stroke-linejoin:round;}
</style>
<g>
	<g>
		<path class="st0" d="M3.1,10.3c0,0,9.3-4.8,9.3-4.8c0.1,0.1-5.4,9.7-5.3,9.8c0.1,0.2,9.3-4.9,9.4-4.8C16.6,10.8,7,21.1,7,21.2
			C7.3,21.7,32.7,7.8,32.8,8.1C33,8.5,5,28.9,5.2,29.3C5.6,30.1,49.3,6.2,49.5,6.7C50,7.6,5.7,34.7,6.1,35.4
			C6.6,36.4,57.3,8.4,57.7,9.1C57.9,9.6,11.8,39,12.3,39.9c0.5,0.9,62.5-33.2,63.1-32.1C75.7,8.6,8.8,48.2,9.2,48.9
			c0.6,1.1,74.6-40,75.4-38.4c0.6,1.1-74.7,43.1-74.3,44C11.2,56.2,98.9,7,99.8,8.9c0.8,1.5-91.2,51.3-90.6,52.5
			c1,1.9,103-54.7,103.9-52.9c0.7,1.4-102,58.2-101.4,59.3c1,1.9,113.8-60.5,114.8-58.5C127.4,11.1,6.2,75.4,6.9,76.7
			C8,78.8,143.9,4.6,144.8,6.4C145.6,8,4.1,83,5,84.6C5.9,86.4,156.4,3.8,157.9,6.7C159.3,9.5,19.1,82,20,83.8
			C20.9,85.5,164.1,8.2,165,10c0.9,1.8-132.1,72.4-131.1,74.4c0.8,1.7,153.1-81,154.3-78.6c1,1.9-138.9,75.5-138.2,77
			c0.9,1.7,144.2-76.5,145.4-74.1c0.9,1.7-138.2,75.4-137.2,77.4C59.4,88.5,210,6.7,210.8,8.3c1.4,2.7-135,72.3-134,74.3
			C77.9,84.7,218,7.1,219.4,9.9C220.4,11.8,88.6,81,89.5,82.7c1.1,2.1,143.2-75.6,144.3-73.5c0.9,1.7-135.8,73.7-135,75.3
			c0.8,1.7,146.5-78,147.8-75.3c0.7,1.4-130,71.8-129.3,73.1c1,2,145.5-76.8,146.5-74.7c1.4,2.8-140.9,76.1-139.9,78
			c1.2,2.4,155.3-82,156.5-79.7c1.1,2.2-143.4,77-142.1,79.5c1.4,2.8,153.8-82.1,155.3-79.1c1.2,2.3-135.1,74.8-134.4,76.3
			c0.8,1.6,141.2-74.3,142.2-72.4c1.2,2.4-130.3,71.5-129.6,72.9c0.9,1.7,146.1-76.6,147-74.9c0.7,1.4-136.7,72.8-135.5,75.2
			C184.7,86.2,326,7.1,327.5,10c1.3,2.6-130.6,70.8-129.7,72.6c1.1,2.1,141.8-75.8,143.2-73c0.7,1.4-128.2,70.7-127.5,72.1
			c0.9,1.7,131-69.2,132-67.3c0.8,1.6-122.4,66.5-121.6,67.9c1,2,124-65.3,124.9-63.6c0.9,1.7-111.6,62.2-110.8,63.7
			c1.2,2.3,101-53.7,101.9-51.9c0.7,1.3-93.3,52.5-92.7,53.5c0.9,1.8,94.1-50,94.9-48.4c0.8,1.6-78.9,46.7-78.4,47.8
			c0.7,1.3,82.2-43.2,82.7-42.1c0.5,0.9-68.6,39.7-67.9,41c0.5,0.9,64.4-33.7,64.7-33c0.5,0.9-52.8,33.7-52.4,34.4
			c0.5,1,49.1-26.1,49.5-25.2c0.4,0.7-34.8,24.6-34.4,25.3c0.2,0.5,40.7-21.8,41.1-21c0.3,0.5-24.7,18.3-24.5,18.7
			c0.3,0.6,16.4-9,16.7-8.5c0.2,0.3-13.5,12.8-13.4,13c0.1,0.3,19.3-10.3,19.5-9.9c0.1,0.1-5.9,10.5-5.9,10.6c0,0,8.6-4.5,8.7-4.4"
			/>
	</g>
</g>
</svg>
