<?xml version="1.0" encoding="utf-8"?>
<!-- Generator: Adobe Illustrator 22.0.0, SVG Export Plug-In . SVG Version: 6.00 Build 0)  -->
<svg version="1.1" xmlns="http://www.w3.org/2000/svg" xmlns:xlink="http://www.w3.org/1999/xlink" x="0px" y="0px"
	 viewBox="0 0 777 108" style="enable-background:new 0 0 777 108;" xml:space="preserve">
<style type="text/css">
	.st0{fill:#FFFFFF;}
	.st1{fill:#FFFFFF;stroke:#FFFFFF;stroke-miterlimit:10;}
</style>
<g id="nome">
	<g>
		<path class="st0" d="M50.1,67.2c0,0,0,0.1,0,0.2c-0.3,2.3-1.5,3.5-3.6,3.5c-0.7,0-1.3-0.2-1.9-0.5c-1.2-0.8-1.8-2.1-1.8-3.8
			c0-0.5,1.4-12.8,4.3-37c-7.2,15.1-12.8,27-16.9,35.7c-0.9,1.9-1.4,2.9-1.5,3.1c-0.9,1.7-2.1,2.6-3.6,2.6c-0.3,0-0.6,0-0.9-0.1
			c-1.3-0.2-2.2-1.3-2.9-3.1l-7.8-38.3c-1.8,13.8-3.6,26.4-5.4,37.8c0,0,0,0.1,0,0.2c-0.3,2.3-1.5,3.5-3.6,3.5
			c-0.7,0-1.3-0.2-1.9-0.5c-1.2-0.8-1.8-2.1-1.8-3.8c0-0.3,2.1-16.5,6.4-48.7C8.3,9.5,8.9,5.1,9,4.4c0.1-0.5,0.3-1,0.5-1.5
			c0.7-1.2,1.8-1.8,3.3-1.8c0.3,0,0.7,0,1,0.1c1.3,0.4,2,1,2.2,2c0.6,3.4,2.6,13.2,5.8,29.4c2.4,11.8,3.9,19.4,4.5,22.8L50.8,3.7
			c0.1-0.3,0.3-0.6,0.5-0.9c0.9-1.1,2-1.7,3.2-1.7c0.6,0,1.1,0.2,1.6,0.5c1.2,0.7,1.9,1.7,2,3.1c-0.1,0.9-0.2,1.9-0.4,3
			C53.4,42.9,50.8,62.8,50.1,67.2z"/>
		<path class="st0" d="M85.6,46.5c0.2-1.8,0.5-5.3,0.9-10.3c0-0.2,0.1-0.4,0.1-0.7c0.4-1.9,1.5-2.9,3.5-3c0.1,0,0.2,0,0.3,0.1
			c1.6,0.2,2.4,2,2.4,5.2c0,0.8-0.1,2.1-0.2,3.8c-0.1-1.1,0-1.5,0.1-1.3c-0.6,8.2-1,13.3-1,15.5c0,0.8,0,1.6,0.1,2.4
			c0.5,3.8,1.8,5.7,4,5.7c0.3,0,0.6,0,0.9-0.1c0.9-0.2,2.1-0.9,3.8-2c1.7-1.2,3-1.8,4-1.8c0.4,0,0.8,0.1,1.1,0.4
			c0.9,0.6,1.4,1.4,1.4,2.6c0,0.1,0,0.2,0,0.4c-0.2,1.4-1.5,2.9-3.7,4.4c-2.8,1.9-5.6,2.8-8.3,2.8c-3.7,0-6.4-1.7-8-5
			c-2.6,3.2-6.3,4.8-10.9,4.8c-1.1,0-2.1-0.1-3.1-0.4c-5.3-1.6-7.9-7.4-7.9-17.4c0-4.8,0.5-9.7,1.6-14.5c0.1-0.2,0.1-0.5,0.2-0.8
			c0.9-3.3,2.3-5,4-5c2.1,0,3.2,1.2,3.3,3.5c0,0.5-0.1,1.6-0.4,3.2c-1.1,6.8-1.6,11.7-1.6,14.7c0,6.3,1.6,9.5,4.8,9.5
			C81.1,63.3,84,57.7,85.6,46.5z"/>
		<path class="st0" d="M120.2,70.9c-7.2-0.3-12.6-4.7-16.1-13.3c-2.6-6.4-3.9-14.3-3.9-23.6c0-0.5,0-1.1,0.1-1.8
			c0.4-6.3,1.6-12.2,3.5-17.5c3.1-8.5,7.5-12.8,13.3-12.8c0.3,0,0.6,0,0.9,0c5.2,0.3,7.8,3.3,7.8,9.1c0,6.2-2.7,13.1-8,20.7
			c-3.4,4.8-7,8.8-10.7,11.8c1,5.7,2.1,10,3.4,12.9c2.3,5.3,5.7,7.9,10.2,7.9c0.3,0,0.6,0,0.9-0.1c1-0.2,2.4-0.9,4.2-2.2
			c1.7-1.2,3.1-1.8,4-1.8c0.4,0,0.8,0.1,1.2,0.4c0.9,0.6,1.3,1.4,1.3,2.4c-0.1,1.6-1.2,3.2-3.3,4.8
			C126.3,69.9,123.4,70.9,120.2,70.9z M117.1,8.6c-1.8,0-3.3,0.8-4.7,2.3c-3.4,3.9-5.3,12-5.6,24.3c1.8-1.8,3.6-4,5.4-6.5
			c5-6.8,7.5-12.6,7.5-17.3c0-0.2-0.1-0.5-0.2-0.9C119,9.3,118.2,8.6,117.1,8.6z"/>
		<path class="st0" d="M125,65.9l7.7-58.7c0.4-3.5,1.7-5.2,3.7-5.3c0.5,0,0.9,0.1,1.3,0.2c1.1,0.4,1.7,1.7,1.7,3.8
			c0,2.6-1,13.6-3.1,33c2.1-4,5.2-6,9.2-6c1.4,0,2.7,0.5,4,1.4c1.7,1.3,2.6,3.1,2.6,5.3c0,0.3,0,1.2,0,2.5c0,3.1,0,5.6,0,7.4
			c0,6.3,0.2,9.9,0.5,10.9c0.1,0.2,0.1,0.4,0.2,0.7c0.9,2.4,2.1,3.6,3.6,3.6c0.3,0,0.6,0,0.9-0.1c0.9-0.2,2.1-0.9,3.8-2.2
			c1.7-1.2,3-1.8,4-1.8c0.4,0,0.7,0.1,1.1,0.3c1,0.6,1.4,1.5,1.4,2.7c0,0.1,0,0.2,0,0.4c-0.2,1.4-1.5,2.9-3.7,4.5
			c-2.8,1.9-5.6,2.8-8.3,2.8c-1.1,0-2.1-0.1-3.1-0.4c-5-1.5-7.5-6.6-7.5-15.5c0-0.8,0-1.9,0.1-3.5c0.1-1.9,0.1-3.4,0.1-4.4
			c0-4.5-0.4-6.7-1.1-6.8c-0.1,0-0.3,0-0.5,0.1c-1.6,0.7-3.7,4-6.2,10.1c-2.2,5.4-3.6,10-4.2,13.7c-0.6,2.9-0.9,5.1-0.9,6.7
			c0-2.5-0.1-3.2-0.2-2.4c-0.9,1.4-2.1,2.1-3.5,2.1c-0.4,0-0.8-0.1-1.2-0.2c-1.6-0.6-2.4-2-2.4-4.2V65.9z"/>
		<path class="st0" d="M161.8,56.4c0-1,0.1-2.1,0.2-3.2c0.6-5.1,2.2-9.7,4.8-13.8c3.1-4.9,6.9-7.3,11.3-7.3c2.1,0,3.9,0.5,5.6,1.4
			c2.8,1.6,4.2,4.1,4.2,7.4c0,0.4,0,0.7,0,1.1c-0.3,5-2.8,8.8-7.3,11.4c-3.1,1.8-6.3,2.7-9.6,2.7c-0.8,0-1.6-0.1-2.4-0.2
			c-0.1,0.6-0.1,1.2-0.1,1.8c0,1.1,0.2,2.1,0.5,3c0.9,2.2,2.7,3.3,5.3,3.3c3.6,0,7.3-1.4,11-4.1c4.5-3.3,8.5-8.1,12-14.2
			c-0.2-0.1-0.5-0.2-0.7-0.4c-3.2-1.8-4.7-4.6-4.7-8.5c0-1.3,0.3-2.5,1-3.7c1.4-2.3,3.5-3.4,6.5-3.4c1.6,0,3,0.4,4.3,1.2
			c2.2,1.4,3.4,3.2,3.4,5.7c0,1-0.2,2.4-0.6,4c0.7-0.4,1.8-1.1,3.1-2.1c1.7-1.1,3-1.7,3.7-1.7c0.9,0,1.8,0.2,2.6,0.7
			c0.9,0.6,1.3,1.1,1.3,1.6c0,0.2-0.1,0.6-0.3,1.4c-1.6,5.4-2.4,9.9-2.4,13.5c0,3.2,0.3,5.7,1,7.6c0.9,2.3,2.1,3.4,3.7,3.4
			c0.9-0.1,2.4-0.8,4.5-2c1.9-1.2,3.2-1.8,4.2-1.8c0.5,0,0.9,0.2,1.4,0.5c0.8,0.6,1.2,1.3,1.2,2.1c-0.1,1.7-1.3,3.4-3.5,5.1
			c-2.7,2-5.6,3-8.6,3c-0.4,0-0.7,0-1.1,0c-3.4-0.4-5.9-2.3-7.5-5.8c-1.2-2-1.8-5.4-1.8-10.3c0-0.9,0-1.9,0.1-2.9
			c0.2-3.3,0.5-5.7,0.9-7.2c-1.4,0.7-3,1.1-4.9,1.3c-2.6,5.5-6,10.4-10.3,14.6c-6.4,6.2-13.1,9.4-20.2,9.4c-0.2,0-0.5,0-0.7,0
			C165.4,70.5,161.8,65.7,161.8,56.4z M176.2,39.4c-0.1,0-0.1,0.1-0.2,0.1c-2.7,1.8-4.8,5.2-6.3,10.1c0.6,0.1,1.3,0.2,2.1,0.2
			c2.6,0,4.8-0.7,6.8-2.2c2.1-1.6,3.1-3.5,3.1-5.8c0-0.3,0-0.6-0.1-0.9c-0.2-1.7-1-2.5-2.2-2.6C178.3,38.4,177.2,38.8,176.2,39.4z
			 M197.2,37.5c0,1.5,0.9,2.6,2.6,3.3c0.7-1.5,1-2.6,1-3.3c0-0.2,0-0.4-0.1-0.6c-0.2-0.8-0.8-1.2-1.7-1.2c-0.2,0-0.4,0-0.5,0.1
			C197.6,36,197.2,36.6,197.2,37.5z"/>
		<path class="st0" d="M269.8,34.6c0.6-1.5,1.7-2.3,3.3-2.4c0.6,0,1.2,0.1,1.8,0.2c5,0.8,9.1,3.4,12.2,7.7c2.9,4.1,4.4,8.7,4.4,13.9
			c0,4.9-1.4,9.2-4.1,12.9c-1.2,1.6-2.5,2.4-3.9,2.4c-0.6,0-1.2-0.3-1.7-0.8c-0.8-0.8-1.2-1.6-1.2-2.5c0-0.4,0.1-0.8,0.2-1.2l0.5-1
			c2.2-3.5,3.3-7,3.3-10.5c0-0.4,0-0.8,0-1.3c-0.3-3.9-1.8-7.2-4.5-9.9c-1.7-1.8-3.3-2.7-4.8-2.8c-0.2,1.4-0.7,3-1.4,4.8
			c-2.2,5.8-5.3,10.9-9.3,15.6c-6.6,7.5-14,11.3-22.2,11.3c-1.1,0-2.2-0.1-3.2-0.4c-5.3-1.4-7.9-6-7.9-14c0-1,0.1-2.1,0.2-3.2
			c0.6-5.1,2.3-9.7,4.9-13.7c3.2-4.9,7.1-7.4,11.6-7.4c2,0,3.7,0.5,5.3,1.4c2.7,1.6,4.1,4.1,4.1,7.5c0,0.4,0,0.7,0,1.1
			c-0.3,5-2.8,8.8-7.3,11.4c-3.1,1.8-6.2,2.7-9.5,2.7c-0.8,0-1.6-0.1-2.4-0.2c0,0.4,0,1.1,0,1.9c0,1,0.1,1.9,0.3,2.7
			c0.7,2.3,2.5,3.5,5.6,3.5c1.7,0,3.4-0.3,5.1-0.9c5.6-2,10.7-7,15.1-15C266.8,43.6,268.7,39,269.8,34.6z M246.3,39
			c-0.4,0.2-0.7,0.5-1.1,0.8c-2.5,2-4.5,5.4-5.9,10.1c0.6,0.1,1.3,0.2,2.1,0.2c2.6,0,4.8-0.8,6.7-2.3c2.1-1.7,3.1-3.7,3.1-6
			c0-0.2,0-0.4,0-0.6c-0.2-2-0.9-3-2.2-3C248.2,38.1,247.3,38.4,246.3,39z"/>
		<path class="st0" d="M331.6,57.3c0-1,0.1-2.1,0.2-3.2c0.6-5.1,2.3-9.7,4.9-13.7c3.2-4.9,7.1-7.4,11.6-7.4c1.6,0,3.2,0.3,4.9,1
			c0.6-0.9,1.5-1.4,2.7-1.4c0.4,0,0.8,0,1.1,0.1c1.3,0.4,2,1.6,2,3.8c0,0.8-0.6,5.8-1.9,15c-1.3,10.9-2.3,19.3-3,25.2l1.3,1.1
			c0.5-0.6,1.2-1.6,2-2.8c3.6-4.8,6.7-8.8,9.1-11.9c1.1-1.4,2.2-2.1,3.2-2.1c0.3,0,0.6,0,0.9,0.1c1.4,0.4,2,1.2,2,2.6
			c0,1.3-0.6,2.6-1.7,4L359.4,82c3.1,4.4,4.7,9.1,4.7,14.1c0,1.9-0.2,3.5-0.7,5c-1.2,3.7-3.7,5.6-7.6,5.6c-5.1,0-8.2-4.7-9.2-14.1
			c-0.8,0.2-1.6,0.3-2.4,0.3c-2,0-3.9-0.8-5.7-2.3c-2.2-1.9-3.3-4.3-3.3-7.1c0-1.7,0.4-3.3,1.2-4.7c1.7-3.2,4.7-4.8,8.9-4.8
			c0.7,0,1.2,0,1.6,0l0.6-4.1c-2.2,1.3-4.3,1.9-6.3,2c-1.9,0-3.6-0.5-5-1.4C333.1,68.1,331.6,63.8,331.6,57.3z M350.8,46.4l1-7
			c-0.5-0.3-1.1-0.5-2.1-0.5c-0.5,0-1.1,0.1-1.7,0.2c-2.8,0.8-5.2,3.4-7.1,7.8c-1.7,3.9-2.6,7.9-2.6,11.9c0,0.3,0,0.7,0,1
			c0.2,3.3,1.1,5,2.8,5c0.9,0,2-0.5,3.3-1.4c1.4-1,2.4-2,3.1-3c0.1-0.1,0.1-0.2,0.2-0.4C348.7,58.1,349.7,53.6,350.8,46.4z
			 M346.3,86.4c0-0.1,0-0.3,0-0.6c0.1-1.3,0.1-3,0.1-5.2c-0.2-0.1-0.5-0.1-0.8-0.1c-0.5,0-0.9,0.1-1.3,0.2c-1.4,0.5-2,1.5-2,2.9
			c0,0.2,0,0.5,0.1,0.8c0.4,1.5,1.4,2.3,3.1,2.3C345.7,86.6,346,86.5,346.3,86.4z M355.3,86.7c-0.8,0.8-1.5,1.6-2.2,2.3
			c0,0.5,0,1.1,0,1.6c0.2,6,1.1,9,2.8,9c0.1,0,0.2,0,0.4,0c1.2-0.3,1.8-1.7,1.8-4.3C358,92.3,357.1,89.4,355.3,86.7z"/>
		<path class="st0" d="M385.7,46.5c0.2-1.8,0.5-5.3,0.9-10.3c0-0.2,0.1-0.4,0.1-0.7c0.4-1.9,1.5-2.9,3.5-3c0.1,0,0.2,0,0.3,0.1
			c1.6,0.2,2.4,2,2.4,5.2c0,0.8-0.1,2.1-0.2,3.8c-0.1-1.1,0-1.5,0.1-1.3c-0.6,8.2-1,13.3-1,15.5c0,0.8,0,1.6,0.1,2.4
			c0.5,3.8,1.8,5.7,4,5.7c0.3,0,0.6,0,0.9-0.1c0.9-0.2,2.1-0.9,3.8-2c1.7-1.2,3-1.8,4-1.8c0.4,0,0.8,0.1,1.1,0.4
			c0.9,0.6,1.4,1.4,1.4,2.6c0,0.1,0,0.2,0,0.4c-0.2,1.4-1.5,2.9-3.7,4.4c-2.8,1.9-5.6,2.8-8.3,2.8c-3.7,0-6.4-1.7-8-5
			c-2.6,3.2-6.3,4.8-10.9,4.8c-1.1,0-2.1-0.1-3.1-0.4c-5.3-1.6-7.9-7.4-7.9-17.4c0-4.8,0.5-9.7,1.6-14.5c0.1-0.2,0.1-0.5,0.2-0.8
			c0.9-3.3,2.3-5,4-5c2.1,0,3.2,1.2,3.3,3.5c0,0.5-0.1,1.6-0.4,3.2c-1.1,6.8-1.6,11.7-1.6,14.7c0,6.3,1.6,9.5,4.8,9.5
			C381.3,63.3,384.1,57.7,385.7,46.5z"/>
		<path class="st0" d="M401.5,57.1c0-1,0.1-2.1,0.2-3.2c0.6-5.1,2.3-9.7,4.9-13.7c3.2-4.9,7-7.4,11.5-7.4c1.2,0,2.4,0.2,3.5,0.5
			c4,1.1,6,4,6,8.4c0,0.3,0,0.7,0,1c-0.3,4-2.1,7.4-5.4,10.2c-3.2,2.7-7,4.1-11.3,4.1c-0.8,0-1.6-0.1-2.4-0.2
			c-0.1,0.4-0.1,1.1-0.1,1.9c0,1.7,0.3,3.1,0.9,4c0.8,1.2,2.5,1.9,5,2.1c1.1,0,2.2-0.1,3.3-0.4c1.9-0.4,4.1-1.5,6.7-3.2
			c1.7-1.1,2.9-1.7,3.6-1.7c0.4,0,0.8,0.1,1.2,0.4c1,0.6,1.4,1.4,1.4,2.5c0,0.4-0.1,0.7-0.2,1.2c-0.8,1.9-3.2,3.8-7.3,5.5
			c-3.8,1.6-7.1,2.4-9.9,2.4c-1.1,0-2.1-0.1-3-0.3C404.3,70.1,401.5,65.4,401.5,57.1z M416,39.8c-2.7,1.8-4.9,5.4-6.4,10.5
			c0.7,0.2,1.5,0.3,2.2,0.3c2.5,0,4.7-0.8,6.5-2.3c2.1-1.7,3.1-3.7,3.1-6c0-2.3-0.7-3.5-2.2-3.5C418.1,38.7,417,39.1,416,39.8z"/>
		<path class="st0" d="M495.7,2.8c0.2,0.3,0.3,0.7,0.5,1.2c0.7,2.5,4.7,23.2,11.8,62.3c0.1,0.3,0.2,0.6,0.2,0.9
			c0,0.6-0.2,1.2-0.5,1.8c-0.7,1.2-1.7,1.8-3,1.8c-0.2,0-0.4,0-0.6,0c-1.4-0.2-2.4-1.1-2.8-2.5l-4-20.7h-20.7l-9.9,20.8
			c-0.1,0.2-0.2,0.5-0.3,0.7c-0.9,1.2-2,1.8-3.1,1.8c-0.7,0-1.4-0.2-2-0.6c-1.1-0.8-1.6-1.8-1.6-3c0-0.4,0.1-0.7,0.2-1.1
			c0.6-1.4,1.7-3.7,3.1-6.8C477.5,27.8,486.1,9.2,489,3.5c0.8-1.7,2-2.5,3.5-2.5C493.9,1,495,1.6,495.7,2.8z M491.2,16.7l-11.2,23.5
			h15.8L491.2,16.7z"/>
		<path class="st0" d="M517.6,56.5c0-1,0.1-2.1,0.2-3.2c0.6-5.1,2.3-9.7,4.9-13.7c3.2-4.9,7-7.4,11.5-7.4c1.6,0,3.1,0.3,4.6,0.9
			l3.7-26c0.5-3.5,1.7-5.3,3.7-5.3c0.3,0,0.7,0.1,1,0.2c1.4,0.8,2,3.9,2,9.4c0,0.6-0.4,4.1-1.2,10.4c-3.4,21.9-5.1,34-5.1,36.2
			c0,1.4,0.3,2.7,0.9,3.9c0.8,1.8,2,2.7,3.4,2.7c0.3,0,0.6,0,0.9-0.1c0.9-0.2,2.2-0.9,3.9-2.1c1.7-1.2,3-1.8,4-1.8
			c0.4,0,0.8,0.2,1.2,0.5c0.7,0.6,1.1,1.4,1.1,2.3c-0.1,1.6-1.3,3.2-3.5,4.9c-2.7,1.9-5.6,2.9-8.6,2.9c-3.8,0-6.6-1.9-8.5-5.7
			c-0.5,0.5-1,1.1-1.5,1.6c-2.9,2.6-5.8,4-8.8,4c-1.9,0-3.5-0.5-4.9-1.4C519.2,67.4,517.6,63,517.6,56.5z M533.7,59.6
			c0.4-0.6,0.9-2.1,1.4-4.5c1.2-5.2,2.1-10.7,2.8-16.4c-0.7-0.3-1.4-0.5-2.2-0.6c-0.5,0-1.1,0.1-1.7,0.2c-2.8,0.8-5.2,3.4-7.1,7.8
			c-1.7,3.9-2.6,7.9-2.6,11.9c0,0.3,0,0.7,0,1c0.1,3.3,1.1,5,2.8,5c0.9,0,2-0.5,3.3-1.4C532,61.5,533,60.5,533.7,59.6z"/>
		<path class="st0" d="M559.3,65.5c-0.1,1.1-0.4,2-0.9,2.9c-0.9,1.5-1.9,2.2-3.2,2.2c-0.3,0-0.6-0.1-0.9-0.2
			c-1.5-0.6-2.2-2.2-2.2-4.8l3.8-28.5c0.1-0.5,0.1-1.1,0.3-1.5c0.5-2.5,1.7-3.7,3.4-3.7c0.4,0,0.8,0,1.1,0.1
			c1.3,0.4,1.9,1.6,1.9,3.8c0,0.9,0,1.9-0.1,3c0-0.1,0.1-0.1,0.1-0.2c2.3-4,5.5-6,9.7-6c1.2,0,2.5,0.3,3.9,1
			c2.1,1.1,3.4,2.5,3.9,4.2c2.2-3.2,5.2-4.9,9-4.9c1.5,0,2.8,0.5,4.1,1.4c1.8,1.3,2.8,3.1,2.8,5.3c0,1.4,0,3.7,0,6.6
			c-0.1,3.3-0.1,5.8-0.1,7.6c0,1.4,0,2.5,0.1,3.5c0.4,4.7,1.8,7.1,4.3,7.1c0.3,0,0.6,0,0.9-0.1c0.9-0.2,2.2-0.9,3.8-2.1
			c1.7-1.2,3-1.8,4-1.8c0.4,0,0.8,0.1,1.1,0.4c0.9,0.6,1.4,1.4,1.4,2.6c0,0.1,0,0.2,0,0.4c-0.2,1.4-1.5,2.9-3.7,4.4
			c-2.8,1.9-5.6,2.8-8.3,2.8c-2.3,0-4.2-0.6-5.7-1.8c-3.2-2.6-4.8-8.2-4.8-17c0-0.5,0-1.3,0-2.5c0.1-1.7,0.1-3.1,0.1-4.3
			c0-3.2-0.4-4.8-1.1-4.8c-0.6,0-1.3,0.5-2.1,1.4c-2.1,2.4-4.4,7-6.8,13.5l-0.8,7.7c-0.2,2-0.4,3.5-0.8,4.5c-0.6,2-1.8,3-3.6,3
			c-0.5,0-0.9-0.1-1.4-0.3c-1.3-0.6-1.9-1.8-1.9-3.7c0-1.8,0.4-5.1,1.3-9.8c1.1-6.6,1.7-11,1.7-13.4c0-0.6-0.1-1.2-0.2-1.7
			c-0.2-1-0.9-1.5-1.9-1.5c-0.5,0-1.2,0.3-1.8,1c-2.2,2.1-4.7,7-7.5,14.8C560.2,61,559.3,64.2,559.3,65.5z"/>
		<path class="st0" d="M639.4,62.3c-0.8-2.4-1.2-5.5-1.2-9.2c0-1.1,0-2.2,0.1-3.3c0.2-3.3,0.5-5.5,0.8-6.8c-0.8,0.5-1.9,0.8-3.1,1.1
			c-0.9,4.3-2,8.1-3.3,11.5c-3.9,9.8-9.3,14.7-16.3,14.7c-2.6,0-4.7-0.9-6.4-2.7c-2.6-2.7-3.8-7-3.8-12.9c0-2,0.4-6,1.2-11.8
			c0.4-2.7,0.6-4.8,0.8-6c0-0.4,0.1-0.7,0.1-1c0.5-2.9,1.7-4.4,3.6-4.4c0.3,0,0.7,0,1,0.1c1.4,0.3,2,1.7,2,4c0,0.9-0.1,2.8-0.4,5.7
			c-0.9,8.5-1.3,13.8-1.3,15.9c0,1.3,0.3,2.6,0.8,3.7c0.8,1.8,1.8,2.8,3.2,2.9c1.3-0.1,2.5-0.6,3.8-1.6c1.2-1.2,2.2-2.6,3.2-4.1
			c2-3.1,3.8-7.8,5.4-14.1c-1-0.3-1.9-0.6-2.7-1.1c-3.1-1.8-4.7-4.7-4.7-8.6c0-1.3,0.3-2.5,1-3.7c1.4-2.3,3.5-3.5,6.5-3.5
			c1.5,0,3,0.4,4.3,1.2c2.2,1.4,3.3,3.3,3.3,5.7c0,1-0.1,2.3-0.2,3.8c0.6-0.4,1.5-1,2.7-1.9c1.7-1.2,3-1.8,3.8-1.8
			c1,0,1.9,0.3,2.7,0.8c0.8,0.6,1.2,1.1,1.2,1.6c0,0.2-0.1,0.6-0.3,1.4c-1.6,5.2-2.3,9.8-2.3,13.8c0,2.9,0.3,5.3,0.9,7.1
			c0.8,2.5,2.1,3.7,3.7,3.7c0.9-0.1,2.4-0.8,4.5-2c1.9-1.2,3.2-1.8,4.2-1.8c0.5,0,0.9,0.2,1.4,0.5c0.8,0.6,1.2,1.2,1.2,2
			c-0.1,1.7-1.3,3.4-3.6,5.2c-2.7,1.9-5.5,2.9-8.6,2.9c-0.7,0-1.4-0.1-2.1-0.2C643.1,68.2,640.7,66,639.4,62.3z M609.8,23.7
			c0-0.5,0.1-1.1,0.4-1.5c0.6-1.2,1.6-1.8,2.9-1.8c0.5,0,1.1,0.1,1.5,0.4c1.2,0.6,1.8,1.6,1.8,2.9c0,0.5-0.1,1.1-0.4,1.5
			c-0.6,1.2-1.6,1.8-2.9,1.8c-0.5,0-1.1-0.1-1.5-0.4C610.3,26,609.8,25,609.8,23.7z M627.5,34.6c0,1.7,1.1,2.9,3.2,3.6
			c0.3-1.6,0.5-2.8,0.5-3.6c0-0.2,0-0.4-0.1-0.6c-0.2-0.8-0.8-1.2-1.7-1.2c-0.2,0-0.3,0-0.5,0.1C628,33.2,627.5,33.7,627.5,34.6z"/>
		<path class="st0" d="M669.1,33c1.1,0,2,0.1,3,0.3c4.6,1,7.5,4.6,8.5,10.8c0.6-0.3,1.5-0.9,2.8-1.8c1.8-1.2,3.2-1.8,4.1-1.8
			c0.5,0,0.9,0.1,1.3,0.4c0.9,0.6,1.4,1.4,1.4,2.4c0,1-0.7,2.2-2,3.4c-1.8,1.7-4.2,3.1-7.1,4.3c0,4.7-0.7,8.7-2.1,11.9
			c-2.3,5.3-6,7.9-11.1,7.9c-1.8,0-3.7-0.6-5.5-1.8c-4.2-2.8-6.4-7.8-6.4-15.1c0-4.4,0.7-8.4,2.2-12C660.6,36.2,664.2,33.3,669.1,33
			z M674.9,52.1c-1.2,0-2.3-0.2-3.3-0.4c-4-0.8-6.5-2.9-7.7-6.3c-0.8,2.5-1.2,5.3-1.2,8.2c0,1.4,0.1,2.8,0.4,4.2
			c0.8,4.1,2.7,6.2,5.5,6.2c0.9,0,1.8-0.3,2.5-0.9C673.3,61.5,674.6,57.8,674.9,52.1z M674.1,46h0.6c-0.5-4.1-1.5-6.2-3.2-6.2
			c-0.2,0-0.3,0-0.5,0c-0.7,0.2-1,0.7-1,1.5c0,0.7,0.1,1.3,0.3,1.9C671,45.1,672.3,46,674.1,46z"/>
	</g>
</g>
<g id="venus">
	<path class="st1" d="M772.5,44.5c7-10,3.5-19.5-4.7-24.9c-2.8-1.9-6.1-2.9-9.5-3c-0.5,0-1-0.4-1.3-0.8c-1.6-3.4-3.9-6-6.9-7.9
		c-5.8-3.6-13.2-3.6-18.9,0c-8.1,5.1-11,15.5-8.7,30.7c1.2,7.8,3.5,14.6,4.3,17.2l0.3,0.9c0.1,0.4,0.1,0.9-0.2,1.3l-6.3,9.5
		c-0.4,0.6-1.3,0.8-2,0.4l-7.1-4.8c-0.6-0.4-1.5-0.2-1.9,0.4l-1.2,1.9c-0.3,0.5-0.2,1.2,0.3,1.6l7.3,4.9c0.6,0.4,0.8,1.3,0.4,2
		l-4.7,7c-0.4,0.6-0.3,1.5,0.4,1.9l1.8,1.2c0.5,0.4,1.3,0.2,1.6-0.3l4.8-7.2c0.4-0.6,1.3-0.8,2-0.4l7.1,4.7c0.6,0.4,1.5,0.3,2-0.4
		l1.1-1.7c0.4-0.6,0.2-1.4-0.4-1.8l-7.2-4.8c-0.6-0.4-0.8-1.3-0.4-2l6.3-9.5c0.2-0.4,0.7-0.6,1.1-0.6l0.9-0.1
		c1.1-0.1,11.3-1.1,20.5-4.3C761.9,52.6,769.9,48.2,772.5,44.5z M732.8,55c-0.3,0-0.6-0.1-0.9-0.2s-0.5-0.4-0.6-0.7
		c-1.6-4.5-9-27.3-1.7-38.4c4-6.1,12.3-7.7,18.3-3.7c3.4,2.2,4.2,7.5,4.5,11.4c3.8-1.2,9.3-2.2,12.6,0c6.1,4,8.1,12.6,3.7,18.3
		C760.5,52.5,737.5,54.8,732.8,55z"/>
</g>
</svg>
