<?xml version="1.0" encoding="utf-8"?>
<!-- Generator: Adobe Illustrator 22.0.0, SVG Export Plug-In . SVG Version: 6.00 Build 0)  -->
<svg version="1.1" id="Camada_1" xmlns="http://www.w3.org/2000/svg" xmlns:xlink="http://www.w3.org/1999/xlink" x="0px" y="0px"
	 viewBox="0 0 400 400" style="enable-background:new 0 0 400 400;" xml:space="preserve">
<style type="text/css">
	.st0{fill:#FFFFFF;}
	.st1{fill:none;}
	.st2{fill:#E8717A;}
	.st3{font-family:'Vibur';}
	.st4{font-size:52.953px;}
</style>
<path class="st0" d="M40.9,247.7c-22,0-39.9-17.9-39.9-39.9v-7c0-22,17.9-39.9,39.9-39.9h318.3c22,0,39.9,17.9,39.9,39.9v7
	c0,22-17.9,39.9-39.9,39.9L40.9,247.7L40.9,247.7z"/>
<path class="st1" d="M359.1,162c21.4,0,38.9,17.4,38.9,38.9v7c0,21.4-17.4,38.9-38.9,38.9H40.9C19.4,246.7,2,229.3,2,207.8v-7
	C2,179.4,19.4,162,40.9,162H359.1 M359.1,160H40.9C18.4,160,0,178.4,0,200.9v7c0,22.5,18.4,40.9,40.9,40.9h318.3
	c22.5,0,40.9-18.4,40.9-40.9v-7C400,178.4,381.6,160,359.1,160L359.1,160z"/>
<text transform="matrix(1 0 0 1 51.9375 217.2412)" class="st2 st3 st4">Admirar Agora!</text>
</svg>
