<?xml version="1.0" encoding="utf-8"?>
<!-- Generator: Adobe Illustrator 22.0.0, SVG Export Plug-In . SVG Version: 6.00 Build 0)  -->
<svg version="1.1" id="Camada_1" xmlns="http://www.w3.org/2000/svg" xmlns:xlink="http://www.w3.org/1999/xlink" x="0px" y="0px"
	 viewBox="0 0 400 400" style="enable-background:new 0 0 400 400;" xml:space="preserve">
<style type="text/css">
	.st0{opacity:0.19;}
	.st1{fill:#FFFFFF;}
</style>
<g class="st0">
	<path class="st1" d="M16.5,327C8,327,1,320,1,311.5v-229C1,74,8,67,16.5,67h367c8.5,0,15.5,7,15.5,15.5v229c0,8.5-7,15.5-15.5,15.5
		H16.5z"/>
	<path d="M383.5,68c8,0,14.5,6.5,14.5,14.5v229c0,8-6.5,14.5-14.5,14.5h-367c-8,0-14.5-6.5-14.5-14.5v-229C2,74.5,8.5,68,16.5,68
		H383.5 M383.5,66h-367C7.4,66,0,73.4,0,82.5v229c0,9.1,7.4,16.5,16.5,16.5h367c9.1,0,16.5-7.4,16.5-16.5v-229
		C400,73.4,392.6,66,383.5,66L383.5,66z"/>
</g>
<g class="st0">
	<path class="st1" d="M21.5,321C13,321,6,314,6,305.5v-216C6,81,13,74,21.5,74h357c8.5,0,15.5,7,15.5,15.5v216
		c0,8.5-7,15.5-15.5,15.5H21.5z"/>
	<path d="M378.5,75c8,0,14.5,6.5,14.5,14.5v216c0,8-6.5,14.5-14.5,14.5h-357c-8,0-14.5-6.5-14.5-14.5v-216c0-8,6.5-14.5,14.5-14.5
		H378.5 M378.5,73h-357C12.4,73,5,80.4,5,89.5v216c0,9.1,7.4,16.5,16.5,16.5h357c9.1,0,16.5-7.4,16.5-16.5v-216
		C395,80.4,387.6,73,378.5,73L378.5,73z"/>
</g>
</svg>
